<svg xmlns="http://www.w3.org/2000/svg" width="512" height="512" viewBox="-3.3600 -7.8600 90.7200 90.7200" preserveAspectRatio="xMidYMid meet" role="img" aria-label="Analytics and AI -&amp;amp;nbsp;Data Catalog">
  <path d="M 0 100 L 0 13.66 L 46.07 13.66 L 46.07 0 L 100 0 L 100 67.07 L 73.8 67.07 L 73.8 100 L 0 100 L 0 100" fill="#FFFFFF" stroke="none" fill-rule="evenodd" clip-rule="evenodd" transform="translate(0.0000 0.0000) scale(0.820000 0.740000)"/>
  <path d="M 97.86 2.38 L 97.86 65.48 L 72.22 65.48 L 72.22 97.62 L 2.14 97.62 L 2.14 15.71 L 47.22 15.71 L 47.22 2.38 L 97.86 2.38 L 97.86 2.38 M 100 0 L 97.86 0 L 47.22 0 L 45.08 0 L 45.08 2.38 L 45.08 13.33 L 2.14 13.33 L 0 13.33 L 0 15.71 L 0 97.62 L 0 100 L 2.14 100 L 72.22 100 L 74.36 100 L 74.36 97.62 L 74.36 67.86 L 97.86 67.86 L 100 67.86 L 100 65.48 L 100 2.38 L 100 0 L 100 0" fill="#FFFFFF" stroke="none" fill-rule="evenodd" clip-rule="evenodd" transform="translate(0.0000 0.0000) scale(0.840000 0.750000)"/>
  <path d="M 100 0 L 0 0 L 0 16.6 L 6.33 16.6 L 6.33 5.66 L 93.67 5.66 L 93.67 94.34 L 54.01 94.34 L 54.01 100 L 100 100 L 100 0 L 100 0" fill="#2d5967" stroke="none" fill-rule="evenodd" clip-rule="evenodd" transform="translate(39.0000 1.0000) scale(0.420000 0.470000)"/>
  <path d="M 100 0 L 0 0 L 0 50 L 0 100 L 100 100 L 100 0 L 100 0" fill="#2d5967" stroke="none" fill-rule="evenodd" clip-rule="evenodd" transform="translate(62.0000 11.0000) scale(0.140000 0.020000)"/>
  <path d="M 100 0 L 0 0 L 0 100 L 44.63 100 L 55.37 100 L 100 100 L 100 0 L 100 0" fill="#2d5967" stroke="none" fill-rule="evenodd" clip-rule="evenodd" transform="translate(44.0000 6.0000) scale(0.320000 0.020000)"/>
  <path d="M 100 0 L 0 0 L 0 100 L 100 100 L 100 0 L 100 0" fill="#2d5967" stroke="none" fill-rule="evenodd" clip-rule="evenodd" transform="translate(62.0000 15.0000) scale(0.140000 0.020000)"/>
  <path d="M 100 0 L 0 0 L 0 100 L 100 100 L 100 0 L 100 0" fill="#2d5967" stroke="none" fill-rule="evenodd" clip-rule="evenodd" transform="translate(62.0000 20.0000) scale(0.140000 0.020000)"/>
  <path d="M 100 0 L 0 0 L 0 100 L 100 100 L 100 0 L 100 0" fill="#2d5967" stroke="none" fill-rule="evenodd" clip-rule="evenodd" transform="translate(62.0000 25.0000) scale(0.080000 0.020000)"/>
  <path d="M 100 0 L 83.54 0 L 0 0 L 0 100 L 100 100 L 100 0 L 100 0 M 4.57 95.64 L 4.57 4.07 L 83.54 4.07 L 95.43 4.07 L 95.43 95.64 L 4.57 95.64 L 4.57 95.64" fill="#2d5967" stroke="none" fill-rule="evenodd" clip-rule="evenodd" transform="translate(1.0000 11.0000) scale(0.590000 0.620000)"/>
  <path d="M 14.09 88.57 L 5.63 88.57 C 6.69 78.57 10.21 69.29 14.79 64.29 C 17.96 60.71 20.07 55 20.78 47.86 C 21.48 40 24.3 32.86 27.82 30 C 29.93 28.57 32.04 27.86 34.15 27.86 C 37.68 28.57 40.84 25.71 43.66 20.71 C 46.83 14.29 51.06 10 55.63 10 C 61.97 10 67.61 17.14 70.42 28.57 C 72.18 35 75 40 78.52 41.43 C 80.28 42.14 82.04 43.57 83.8 45.71 C 90.85 55 93.66 72.86 90.49 88.57 L 83.45 88.57 L 83.45 99.29 L 93.66 99.29 L 94.37 96.43 C 100 75.71 96.48 49.29 86.62 37.14 C 84.51 34.29 82.04 32.14 79.58 31.43 C 77.82 30.71 76.06 27.86 75 24.29 C 71.48 9.29 63.73 0 55.63 0 C 49.65 0 44.02 5 39.79 13.57 C 38.38 16.43 36.62 17.86 34.86 17.86 C 31.69 17.14 28.87 18.57 26.06 20.71 C 20.78 25 17.25 35 15.85 46.43 C 15.49 50.71 14.09 54.29 12.68 55.71 C 5.63 62.86 0.7 77.86 0.35 94.29 L 0 100 L 14.09 100 L 14.09 88.57 L 14.09 88.57" fill="#2d5967" stroke="none" fill-rule="evenodd" clip-rule="evenodd" transform="translate(5.0000 16.0000) scale(0.510000 0.250000)"/>
  <path d="M 100 8.63 C 100 4.06 95.43 0 90.29 0 L 9.71 0 C 4.57 0 0 4.06 0 8.63 L 0 91.37 C 0 95.94 4.57 100 9.71 100 L 90.29 100 C 95.43 100 100 95.94 100 91.37 L 100 8.63 L 100 8.63 M 90.29 91.88 L 9.71 91.88 C 9.14 91.88 8.57 91.37 8.57 90.86 L 8.57 8.63 C 8.57 8.12 9.14 7.61 9.71 7.61 L 90.29 7.61 C 90.86 7.61 91.43 8.12 91.43 8.63 L 91.43 91.37 C 91.43 91.88 90.86 91.88 90.29 91.88 L 90.29 91.88" fill="#2d5967" stroke="none" fill-rule="evenodd" clip-rule="evenodd" transform="translate(14.0000 32.0000) scale(0.310000 0.350000)"/>
  <path d="M 100 71.64 L 100 0 L 0 0 L 0 100 L 100 100 L 100 71.64 L 100 71.64 M 12.29 22.39 L 88.52 22.39 L 88.52 77.61 L 12.29 77.61 L 12.29 22.39 L 12.29 22.39" fill="#2d5967" stroke="none" fill-rule="evenodd" clip-rule="evenodd" transform="translate(19.0000 37.0000) scale(0.220000 0.120000)"/>
  <path d="M 50 100 C 77.61 100 100 77.6 100 49.99 C 100 22.38 77.61 0 50 0 C 22.39 0 0 22.38 0 49.99 C 0 77.6 22.39 100 50 100 L 50 100" fill="#2d5967" stroke="none" fill-rule="evenodd" clip-rule="evenodd" transform="translate(34.0000 42.0000) scale(0.020000 0.020000)"/>
  <path d="M 0 100 L 100 100 L 100 0 L 0 0 L 0 100 L 0 100 M 12.29 21.21 L 88.52 21.21 L 88.52 77.26 L 12.29 77.26 L 12.29 21.21 L 12.29 21.21" fill="#2d5967" stroke="none" fill-rule="evenodd" clip-rule="evenodd" transform="translate(19.0000 51.0000) scale(0.220000 0.110000)"/>
  <path d="M 50 100 C 77.61 100 100 77.64 100 50.02 C 100 22.4 77.61 0 50 0 C 22.39 0 0 22.4 0 50.02 C 0 77.64 22.39 100 50 100 L 50 100" fill="#2d5967" stroke="none" fill-rule="evenodd" clip-rule="evenodd" transform="translate(34.0000 56.0000) scale(0.020000 0.020000)"/>
  <path d="M 25 0 L 0 50 L 25 100 L 75 100 L 100 50 L 75 0 L 25 0 L 25 0" fill="#2d5967" stroke="none" fill-rule="evenodd" clip-rule="evenodd" transform="translate(67.0000 38.0000) scale(0.060000 0.050000)"/>
  <path d="M 50 0 C 23.52 0 0 23.53 0 50 C 0 76.47 23.52 100 50 100 C 76.46 100 100 76.47 100 50 C 100 23.53 76.46 0 50 0 L 50 0" fill="#2d5967" stroke="none" fill-rule="evenodd" clip-rule="evenodd" transform="translate(71.0000 30.0000) scale(0.060000 0.060000)"/>
  <path d="M 50 0 L 0 100 L 100 100 L 50 0 L 50 0" fill="#2d5967" stroke="none" fill-rule="evenodd" clip-rule="evenodd" transform="translate(62.0000 30.0000) scale(0.060000 0.050000)"/>
</svg>
