<svg xmlns="http://www.w3.org/2000/svg" width="512" height="512" viewBox="-3.3600 -3.3600 90.7200 90.7200" preserveAspectRatio="xMidYMid meet" role="img" aria-label="Observability and Management - Auditing">
  <path d="M 5.11 100 L 4.62 100 C 1.95 99.76 0 97.56 0 94.63 L 0 5.37 C 0 2.44 2.43 0 5.35 0 L 94.65 0 C 97.57 0 100 2.44 100 5.37 L 100 100 L 5.11 100 L 5.11 100" fill="#FFFFFF" stroke="none" fill-rule="evenodd" clip-rule="evenodd" transform="translate(1.0000 1.0000) scale(0.820000 0.820000)"/>
  <path d="M 93.57 2.38 C 95.71 2.38 97.62 4.29 97.62 6.43 L 97.62 97.62 L 94.05 97.62 L 6.43 97.62 L 5.95 97.62 C 3.81 97.38 2.38 95.71 2.38 93.57 L 2.38 6.43 C 2.38 4.29 4.29 2.38 6.43 2.38 L 93.57 2.38 L 93.57 2.38 M 93.57 0 L 6.43 0 C 2.86 0 0 2.86 0 6.43 L 0 93.81 C 0 96.91 2.38 99.76 5.71 100 L 6.19 100 L 94.05 100 L 97.62 100 L 100 100 L 100 97.62 L 100 6.43 C 100 2.86 97.14 0 93.57 0 L 93.57 0" fill="#FFFFFF" stroke="none" fill-rule="evenodd" clip-rule="evenodd" transform="translate(0.0000 0.0000) scale(0.840000 0.840000)"/>
  <path d="M 95.75 0 L 4.25 0 C 2 0 0 2 0 4.25 L 0 96 C 0 98 2 100 4.25 100 L 4.25 96.25 C 4 96.25 3.75 96 3.75 95.75 L 3.75 28.75 L 96.25 28.75 L 96.25 76 L 100 76 L 100 4.25 C 100 2 98 0 95.75 0 L 95.75 0 M 96.25 25 L 3.75 25 L 3.75 4.25 C 3.75 4 4 3.75 4.25 3.75 L 96 3.75 C 96.25 3.75 96.5 4 96.5 4.25 L 96.25 25 L 96.25 25" fill="#2d5967" stroke="none" fill-rule="evenodd" clip-rule="evenodd" transform="translate(2.0000 2.0000) scale(0.800000 0.800000)"/>
  <path d="M 100 0 L 0 0 L 0 100 L 100 100 L 100 0 L 100 0" fill="#2d5967" stroke="none" fill-rule="evenodd" clip-rule="evenodd" transform="translate(16.0000 36.0000) scale(0.510000 0.030000)"/>
  <path d="M 100 0 L 0 0 L 0 100 L 100 100 L 100 0 L 100 0" fill="#2d5967" stroke="none" fill-rule="evenodd" clip-rule="evenodd" transform="translate(16.0000 53.0000) scale(0.350000 0.030000)"/>
  <path d="M 100 0 L 0 0 L 0 100 L 100 100 L 100 0 L 100 0" fill="#2d5967" stroke="none" fill-rule="evenodd" clip-rule="evenodd" transform="translate(16.0000 69.0000) scale(0.260000 0.030000)"/>
  <path d="M 0 100 L 100 100 L 100 0 L 0 0 L 0 100 L 0 100 M 31.25 31.25 L 68.75 31.25 L 68.75 68.75 L 31.25 68.75 L 31.25 31.25 L 31.25 31.25" fill="#2d5967" stroke="none" fill-rule="evenodd" clip-rule="evenodd" transform="translate(8.0000 8.0000) scale(0.090000 0.090000)"/>
</svg>
