<svg xmlns="http://www.w3.org/2000/svg" width="512" height="512" viewBox="-3.3600 -3.3600 90.7200 90.7200" preserveAspectRatio="xMidYMid meet" role="img" aria-label="Compute - Autoscaling">
  <path d="M 5.35 99.76 C 2.43 99.76 0 97.32 0 94.4 L 0 5.35 C 0 2.43 2.43 0 5.35 0 L 94.65 0 C 97.57 0 100 2.43 100 5.35 L 100 94.65 C 100 97.57 97.57 100 94.65 100 L 5.35 99.76 L 5.35 99.76" fill="#FFFFFF" stroke="none" fill-rule="evenodd" clip-rule="evenodd" transform="translate(1.0000 1.0000) scale(0.820000 0.820000)"/>
  <path d="M 93.35 2.38 C 95.49 2.38 97.39 4.29 97.39 6.43 L 97.39 93.81 C 97.39 95.95 95.49 97.86 93.35 97.86 L 6.41 97.86 C 4.28 97.62 2.38 95.71 2.38 93.57 L 2.38 6.43 C 2.38 4.29 4.28 2.38 6.41 2.38 L 93.35 2.38 L 93.35 2.38 M 93.35 0 L 6.41 0 C 2.85 0 0 2.86 0 6.43 L 0 93.81 C 0 97.14 2.85 100 6.41 100 L 93.59 100 C 97.15 100 100 97.14 100 93.57 L 100 6.43 C 99.76 2.86 96.91 0 93.35 0 L 93.35 0" fill="#FFFFFF" stroke="none" fill-rule="evenodd" clip-rule="evenodd" transform="translate(0.0000 0.0000) scale(0.840000 0.840000)"/>
  <path d="M 95.51 0 L 4.24 0 C 2 0 0 2 0 4.25 L 0 96 C 0 98 2 100 4.24 100 L 95.76 100 C 98 100 100 98 100 95.75 L 100 4.25 C 99.75 2 97.75 0 95.51 0 L 95.51 0 M 96.01 95.75 C 96.01 96 95.76 96.25 95.51 96.25 L 4.24 96.25 C 3.99 96.25 3.74 96 3.74 95.75 L 3.74 4.25 C 3.74 4 3.99 3.75 4.24 3.75 L 95.76 3.75 C 96.01 3.75 96.26 4 96.26 4.25 L 96.01 95.75 L 96.01 95.75" fill="#2d5967" stroke="none" fill-rule="evenodd" clip-rule="evenodd" transform="translate(2.0000 2.0000) scale(0.800000 0.800000)"/>
  <path d="M 0 100 L 100 100 L 100 0 L 0 0 L 0 100 L 0 100 M 6.04 6.49 L 93.1 6.49 L 93.1 93.94 L 6.04 93.94 L 6.04 6.49 L 6.04 6.49" fill="#2d5967" stroke="none" fill-rule="evenodd" clip-rule="evenodd" transform="translate(8.0000 30.0000) scale(0.460000 0.460000)"/>
  <path d="M 100 0 L 0 0 L 0 100 L 100 100 L 100 0 L 100 0" fill="#2d5967" stroke="none" fill-rule="evenodd" clip-rule="evenodd" transform="translate(13.0000 8.0000) scale(0.030000 0.030000)"/>
  <path d="M 100 0 L 0 0 L 0 100 L 100 100 L 100 0 L 100 0" fill="#2d5967" stroke="none" fill-rule="evenodd" clip-rule="evenodd" transform="translate(8.0000 8.0000) scale(0.030000 0.030000)"/>
  <path d="M 100 0 L 0 0 L 0 100 L 100 100 L 100 0 L 100 0" fill="#2d5967" stroke="none" fill-rule="evenodd" clip-rule="evenodd" transform="translate(19.0000 8.0000) scale(0.030000 0.030000)"/>
  <path d="M 100 0 L 0 0 L 0 100 L 100 100 L 100 0 L 100 0" fill="#2d5967" stroke="none" fill-rule="evenodd" clip-rule="evenodd" transform="translate(25.0000 8.0000) scale(0.030000 0.030000)"/>
  <path d="M 100 0 L 0 0 L 0 100 L 100 100 L 100 0 L 100 0" fill="#2d5967" stroke="none" fill-rule="evenodd" clip-rule="evenodd" transform="translate(31.0000 8.0000) scale(0.030000 0.030000)"/>
  <path d="M 100 0 L 0 0 L 0 100 L 100 100 L 100 0 L 100 0" fill="#2d5967" stroke="none" fill-rule="evenodd" clip-rule="evenodd" transform="translate(37.0000 8.0000) scale(0.030000 0.030000)"/>
  <path d="M 100 0 L 0 0 L 0 100 L 100 100 L 100 0 L 100 0" fill="#2d5967" stroke="none" fill-rule="evenodd" clip-rule="evenodd" transform="translate(43.0000 8.0000) scale(0.030000 0.030000)"/>
  <path d="M 100 0 L 0 0 L 0 100 L 100 100 L 100 0 L 100 0" fill="#2d5967" stroke="none" fill-rule="evenodd" clip-rule="evenodd" transform="translate(49.0000 8.0000) scale(0.030000 0.030000)"/>
  <path d="M 100 0 L 0 0 L 0 100 L 100 100 L 100 0 L 100 0" fill="#2d5967" stroke="none" fill-rule="evenodd" clip-rule="evenodd" transform="translate(55.0000 8.0000) scale(0.030000 0.030000)"/>
  <path d="M 100 0 L 0 0 L 0 100 L 100 100 L 100 0 L 100 0" fill="#2d5967" stroke="none" fill-rule="evenodd" clip-rule="evenodd" transform="translate(61.0000 8.0000) scale(0.030000 0.030000)"/>
  <path d="M 100 0 L 0 0 L 0 100 L 100 100 L 100 0 L 100 0" fill="#2d5967" stroke="none" fill-rule="evenodd" clip-rule="evenodd" transform="translate(67.0000 8.0000) scale(0.030000 0.030000)"/>
  <path d="M 100 0 L 0 0 L 0 100 L 100 100 L 100 0 L 100 0" fill="#2d5967" stroke="none" fill-rule="evenodd" clip-rule="evenodd" transform="translate(73.0000 8.0000) scale(0.030000 0.030000)"/>
  <path d="M 100 0 L 0 0 L 0 100 L 100 100 L 100 0 L 100 0" fill="#2d5967" stroke="none" fill-rule="evenodd" clip-rule="evenodd" transform="translate(73.0000 13.0000) scale(0.030000 0.030000)"/>
  <path d="M 100 0 L 0 0 L 0 100 L 100 100 L 100 0 L 100 0" fill="#2d5967" stroke="none" fill-rule="evenodd" clip-rule="evenodd" transform="translate(73.0000 19.0000) scale(0.030000 0.030000)"/>
  <path d="M 100 0 L 0 0 L 0 100 L 100 100 L 100 0 L 100 0" fill="#2d5967" stroke="none" fill-rule="evenodd" clip-rule="evenodd" transform="translate(73.0000 25.0000) scale(0.030000 0.030000)"/>
  <path d="M 100 0 L 0 0 L 0 100 L 100 100 L 100 0 L 100 0" fill="#2d5967" stroke="none" fill-rule="evenodd" clip-rule="evenodd" transform="translate(73.0000 31.0000) scale(0.030000 0.030000)"/>
  <path d="M 100 0 L 0 0 L 0 100 L 100 100 L 100 0 L 100 0" fill="#2d5967" stroke="none" fill-rule="evenodd" clip-rule="evenodd" transform="translate(73.0000 37.0000) scale(0.030000 0.030000)"/>
  <path d="M 100 0 L 0 0 L 0 100 L 100 100 L 100 0 L 100 0" fill="#2d5967" stroke="none" fill-rule="evenodd" clip-rule="evenodd" transform="translate(73.0000 43.0000) scale(0.030000 0.030000)"/>
  <path d="M 100 0 L 0 0 L 0 100 L 100 100 L 100 0 L 100 0" fill="#2d5967" stroke="none" fill-rule="evenodd" clip-rule="evenodd" transform="translate(73.0000 49.0000) scale(0.030000 0.030000)"/>
  <path d="M 100 0 L 0 0 L 0 100 L 100 100 L 100 0 L 100 0" fill="#2d5967" stroke="none" fill-rule="evenodd" clip-rule="evenodd" transform="translate(73.0000 55.0000) scale(0.030000 0.030000)"/>
  <path d="M 100 0 L 0 0 L 0 100 L 100 100 L 100 0 L 100 0" fill="#2d5967" stroke="none" fill-rule="evenodd" clip-rule="evenodd" transform="translate(73.0000 61.0000) scale(0.030000 0.030000)"/>
  <path d="M 100 0 L 0 0 L 0 100 L 100 100 L 100 0 L 100 0" fill="#2d5967" stroke="none" fill-rule="evenodd" clip-rule="evenodd" transform="translate(73.0000 67.0000) scale(0.030000 0.030000)"/>
  <path d="M 100 0 L 0 0 L 0 100 L 100 100 L 100 0 L 100 0" fill="#2d5967" stroke="none" fill-rule="evenodd" clip-rule="evenodd" transform="translate(73.0000 73.0000) scale(0.030000 0.030000)"/>
  <path d="M 45.08 21.13 L 63.38 21.13 L 21.13 63.38 L 21.13 45.07 L 0 45.07 L 0 100 L 54.93 100 L 54.93 78.87 L 36.62 78.87 L 78.87 36.62 L 78.87 54.93 L 100 54.93 L 100 0 L 45.08 0 L 45.08 21.13 L 45.08 21.13" fill="#2d5967" stroke="none" fill-rule="evenodd" clip-rule="evenodd" transform="translate(56.0000 13.0000) scale(0.140000 0.140000)"/>
  <path d="M 0 100 L 100 100 L 100 0 L 0 0 L 0 100 L 0 100 M 7.78 27.28 L 91.11 27.28 L 91.11 74.54 L 7.78 74.54 L 7.78 27.28 L 7.78 27.28" fill="#2d5967" stroke="none" fill-rule="evenodd" clip-rule="evenodd" transform="translate(13.0000 60.0000) scale(0.360000 0.110000)"/>
  <path d="M 98.08 0 L 0 0 L 0 100 L 100 100 L 98.08 0 L 98.08 0 M 71.15 71.16 L 26.92 71.16 L 26.92 28.85 L 69.23 28.85 L 69.23 71.16 L 71.15 71.16 L 71.15 71.16" fill="#2d5967" stroke="none" fill-rule="evenodd" clip-rule="evenodd" transform="translate(13.0000 47.0000) scale(0.100000 0.100000)"/>
  <path d="M 100 0 L 0 0 L 0 100 L 100 100 L 100 0 L 100 0 M 71.16 71.16 L 28.84 71.16 L 28.84 28.85 L 71.16 28.85 L 71.16 71.16 L 71.16 71.16" fill="#2d5967" stroke="none" fill-rule="evenodd" clip-rule="evenodd" transform="translate(25.0000 47.0000) scale(0.100000 0.100000)"/>
  <path d="M 0 100 L 100 100 L 100 0 L 0 0 L 0 100 L 0 100 M 28.84 28.85 L 71.16 28.85 L 71.16 71.16 L 28.84 71.16 L 28.84 28.85 L 28.84 28.85" fill="#2d5967" stroke="none" fill-rule="evenodd" clip-rule="evenodd" transform="translate(38.0000 47.0000) scale(0.100000 0.100000)"/>
  <path d="M 98.08 0 L 0 0 L 0 100 L 100 100 L 98.08 0 L 98.08 0 M 71.15 71.15 L 26.92 71.15 L 26.92 28.85 L 69.23 28.85 L 69.23 71.15 L 71.15 71.15 L 71.15 71.15" fill="#2d5967" stroke="none" fill-rule="evenodd" clip-rule="evenodd" transform="translate(13.0000 35.0000) scale(0.100000 0.100000)"/>
  <path d="M 100 0 L 0 0 L 0 100 L 100 100 L 100 0 L 100 0 M 71.16 71.15 L 28.84 71.15 L 28.84 28.85 L 71.16 28.85 L 71.16 71.15 L 71.16 71.15" fill="#2d5967" stroke="none" fill-rule="evenodd" clip-rule="evenodd" transform="translate(25.0000 35.0000) scale(0.100000 0.100000)"/>
  <path d="M 0 100 L 100 100 L 100 0 L 0 0 L 0 100 L 0 100 M 28.84 28.85 L 71.16 28.85 L 71.16 71.15 L 28.84 71.15 L 28.84 28.85 L 28.84 28.85" fill="#2d5967" stroke="none" fill-rule="evenodd" clip-rule="evenodd" transform="translate(38.0000 35.0000) scale(0.100000 0.100000)"/>
</svg>
