<svg xmlns="http://www.w3.org/2000/svg" width="512" height="512" viewBox="-3.3600 -3.3600 90.7200 90.7200" preserveAspectRatio="xMidYMid meet" role="img" aria-label="Storage - Block Storage Cloning">
  <path d="M 5.35 99.76 C 2.43 99.76 0 97.32 0 94.4 L 0 5.35 C 0 2.43 2.43 0 5.35 0 L 94.65 0 C 97.57 0 100 2.43 100 5.35 L 100 94.65 C 100 97.57 97.57 100 94.65 100 L 5.35 99.76 L 5.35 99.76" fill="#FFFFFF" stroke="none" fill-rule="evenodd" clip-rule="evenodd" transform="translate(1.0000 1.0000) scale(0.820000 0.820000)"/>
  <path d="M 93.35 2.38 C 95.49 2.38 97.39 4.29 97.39 6.43 L 97.39 93.81 C 97.39 95.95 95.49 97.86 93.35 97.86 L 6.41 97.86 C 4.28 97.62 2.38 95.71 2.38 93.57 L 2.38 6.43 C 2.38 4.29 4.28 2.38 6.41 2.38 L 93.35 2.38 L 93.35 2.38 M 93.35 0 L 6.41 0 C 2.85 0 0 2.86 0 6.43 L 0 93.81 C 0 97.14 2.85 100 6.41 100 L 93.59 100 C 97.15 100 100 97.14 100 93.57 L 100 6.43 C 99.76 2.86 96.91 0 93.35 0 L 93.35 0" fill="#FFFFFF" stroke="none" fill-rule="evenodd" clip-rule="evenodd" transform="translate(0.0000 0.0000) scale(0.840000 0.840000)"/>
  <path d="M 10.49 43.41 L 10.49 12.4 L 90.21 12.4 L 90.21 89.15 L 50.35 89.15 L 50.35 100 L 93.01 100 C 97.2 100 100 96.12 100 92.25 L 100 0 L 0 0 L 0 42.64 L 10.49 42.64 L 10.49 43.41 L 10.49 43.41" fill="#2d5967" stroke="none" fill-rule="evenodd" clip-rule="evenodd" transform="translate(41.0000 22.0000) scale(0.280000 0.260000)"/>
  <path d="M 100 52.63 C 100 21.05 96.53 0 93.05 0 L 6.95 0 C 2.78 0 0 26.32 0 52.63 L 0 100 L 100 100 L 100 52.63 L 100 52.63" fill="#2d5967" stroke="none" fill-rule="evenodd" clip-rule="evenodd" transform="translate(41.0000 16.0000) scale(0.290000 0.030000)"/>
  <path d="M 100 0 L 0 0 L 0 100 L 43.48 100 C 47.82 100 52.16 100 56.52 100 L 100 100 L 100 0 L 100 0" fill="#2d5967" stroke="none" fill-rule="evenodd" clip-rule="evenodd" transform="translate(48.0000 29.0000) scale(0.040000 0.040000)"/>
  <path d="M 100 0 L 0 0 L 0 100 L 100 100 L 100 0 L 100 0" fill="#2d5967" stroke="none" fill-rule="evenodd" clip-rule="evenodd" transform="translate(57.0000 29.0000) scale(0.040000 0.040000)"/>
  <path d="M 100 0 L 0 0 L 0 100 L 100 100 L 100 0 L 100 0" fill="#2d5967" stroke="none" fill-rule="evenodd" clip-rule="evenodd" transform="translate(57.0000 37.0000) scale(0.040000 0.040000)"/>
  <path d="M 0 0 L 0 92.98 C 0 96.49 2.58 100 6.19 100 L 93.81 100 C 96.91 100 100 97.08 100 92.98 L 100 0 L 0 0 L 0 0 M 91.75 91.23 L 7.22 91.23 L 7.22 8.19 L 91.75 8.19 L 91.75 91.23 L 91.75 91.23" fill="#2d5967" stroke="none" fill-rule="evenodd" clip-rule="evenodd" transform="translate(14.0000 42.0000) scale(0.390000 0.340000)"/>
  <path d="M 100 100 L 100 54.55 C 100 27.27 97.42 0 93.82 0 L 6.19 0 C 3.09 0 0 22.73 0 54.55 L 0 100 L 100 100 L 100 100" fill="#2d5967" stroke="none" fill-rule="evenodd" clip-rule="evenodd" transform="translate(14.0000 35.0000) scale(0.390000 0.040000)"/>
  <path d="M 0 100 L 100 100 L 100 0 L 0 0 L 0 100 L 0 100 M 27.27 27.27 L 72.73 27.27 L 72.73 72.73 L 27.27 72.73 L 27.27 27.27 L 27.27 27.27" fill="#2d5967" stroke="none" fill-rule="evenodd" clip-rule="evenodd" transform="translate(21.0000 47.0000) scale(0.110000 0.110000)"/>
  <path d="M 100 0 L 0 0 L 0 100 L 100 100 L 100 0 L 100 0 M 72.73 72.73 L 27.27 72.73 L 27.27 27.27 L 72.73 27.27 L 72.73 72.73 L 72.73 72.73" fill="#2d5967" stroke="none" fill-rule="evenodd" clip-rule="evenodd" transform="translate(34.0000 47.0000) scale(0.110000 0.110000)"/>
  <path d="M 0 100 L 100 100 L 100 0 L 0 0 L 0 100 L 0 100 M 27.27 27.27 L 72.73 27.27 L 72.73 72.73 L 27.27 72.73 L 27.27 27.27 L 27.27 27.27" fill="#2d5967" stroke="none" fill-rule="evenodd" clip-rule="evenodd" transform="translate(21.0000 60.0000) scale(0.110000 0.110000)"/>
  <path d="M 0 100 L 100 100 L 100 0 L 0 0 L 0 100 L 0 100 M 27.27 27.27 L 72.73 27.27 L 72.73 72.73 L 27.27 72.73 L 27.27 27.27 L 27.27 27.27" fill="#2d5967" stroke="none" fill-rule="evenodd" clip-rule="evenodd" transform="translate(34.0000 60.0000) scale(0.110000 0.110000)"/>
  <path d="M 36.84 8.11 L 1.75 35.13 L 0 36.49 L 1.75 37.84 L 17.55 50 L 36.84 36.49 L 36.84 79.73 L 1.75 79.73 L 1.75 100 L 63.16 100 L 63.16 36.49 L 82.45 50 L 100 35.13 L 61.41 8.11 L 49.12 0 L 36.84 8.11 L 36.84 8.11" fill="#2d5967" stroke="none" fill-rule="evenodd" clip-rule="evenodd" transform="translate(55.0000 49.0000) scale(0.110000 0.140000)"/>
  <path d="M 0 95.28 C 0 97.78 2 100 4.24 100 L 95.76 100 C 98 100 100 97.78 100 95.28 L 100 0 L 0 0 L 0 95.28 L 0 95.28 M 3.74 4.17 L 96.01 4.17 L 96.01 95.56 C 96.01 95.83 95.76 96.11 95.51 96.11 L 4.24 96.11 C 3.99 96.11 3.74 95.83 3.74 95.56 L 3.74 4.17 L 3.74 4.17" fill="#2d5967" stroke="none" fill-rule="evenodd" clip-rule="evenodd" transform="translate(2.0000 10.0000) scale(0.800000 0.720000)"/>
  <path d="M 95.75 0 L 4.25 0 C 2 0 0 27.59 0 58.62 L 0 100 L 100 100 L 100 58.62 C 100 27.59 98 0 95.75 0 L 95.75 0" fill="#2d5967" stroke="none" fill-rule="evenodd" clip-rule="evenodd" transform="translate(2.0000 2.0000) scale(0.800000 0.050000)"/>
</svg>
