<svg xmlns="http://www.w3.org/2000/svg" width="512" height="512" viewBox="-3.3600 -3.3600 90.7200 90.7200" preserveAspectRatio="xMidYMid meet" role="img" aria-label="Developer Services - Container Registry">
  <path d="M 5.35 99.76 C 2.43 99.76 0 97.32 0 94.4 L 0 5.35 C 0 2.43 2.43 0 5.35 0 L 94.65 0 C 97.57 0 100 2.43 100 5.35 L 100 94.65 C 100 97.57 97.57 100 94.65 100 L 5.35 99.76 L 5.35 99.76" fill="#FFFFFF" stroke="none" fill-rule="evenodd" clip-rule="evenodd" transform="translate(1.0000 1.0000) scale(0.820000 0.820000)"/>
  <path d="M 93.35 2.38 C 95.49 2.38 97.39 4.29 97.39 6.43 L 97.39 93.81 C 97.39 95.95 95.49 97.86 93.35 97.86 L 6.41 97.86 C 4.28 97.62 2.38 95.71 2.38 93.57 L 2.38 6.43 C 2.38 4.29 4.28 2.38 6.41 2.38 L 93.35 2.38 L 93.35 2.38 M 93.35 0 L 6.41 0 C 2.85 0 0 2.86 0 6.43 L 0 93.81 C 0 97.14 2.85 100 6.41 100 L 93.59 100 C 97.15 100 100 97.14 100 93.57 L 100 6.43 C 99.76 2.86 96.91 0 93.35 0 L 93.35 0" fill="#FFFFFF" stroke="none" fill-rule="evenodd" clip-rule="evenodd" transform="translate(0.0000 0.0000) scale(0.840000 0.840000)"/>
  <path d="M 95.75 100 L 4.25 100 C 2 100 0 98 0 95.75 L 0 4.25 C 0 2 2 0 4.25 0 L 96 0 C 98 0 100 2 100 4.25 L 100 96 C 100 98 98 100 95.75 100 L 95.75 100 M 4.25 3.75 C 4 3.75 3.75 4 3.75 4.25 L 3.75 96 C 3.75 96.25 4 96.5 4.25 96.5 L 96 96.5 C 96.25 96.5 96.5 96.25 96.5 96 L 96.5 4.25 C 96.5 4 96.25 3.75 96 3.75 L 4.25 3.75 L 4.25 3.75" fill="#2d5967" stroke="none" fill-rule="evenodd" clip-rule="evenodd" transform="translate(2.0000 2.0000) scale(0.800000 0.800000)"/>
  <path d="M 100 100 L 0 100 L 0 0 L 100 0 L 100 100 L 100 100 M 15.73 84.27 L 82.03 84.27 L 82.03 16.85 L 15.73 16.85 L 15.73 84.27 L 15.73 84.27" fill="#2d5967" stroke="none" fill-rule="evenodd" clip-rule="evenodd" transform="translate(22.0000 23.0000) scale(0.170000 0.170000)"/>
  <path d="M 100 100 L 0 100 L 0 0 L 100 0 C 98.87 1.12 98.87 100 100 100 L 100 100 M 15.73 84.27 L 82.02 84.27 L 82.02 16.85 L 15.73 16.85 L 15.73 84.27 L 15.73 84.27" fill="#2d5967" stroke="none" fill-rule="evenodd" clip-rule="evenodd" transform="translate(43.0000 23.0000) scale(0.170000 0.170000)"/>
  <path d="M 100 100 L 0 100 L 0 0 L 100 0 L 100 100 L 100 100 M 16.85 84.27 L 84.27 84.27 L 84.27 16.85 L 16.85 16.85 L 16.85 84.27 L 16.85 84.27" fill="#2d5967" stroke="none" fill-rule="evenodd" clip-rule="evenodd" transform="translate(32.0000 43.0000) scale(0.170000 0.170000)"/>
  <path d="M 100 100 L 0 100 L 0 0 L 100 0 L 100 100 L 100 100 M 16.85 84.27 L 84.27 84.27 L 84.27 16.85 L 16.85 16.85 L 16.85 84.27 L 16.85 84.27" fill="#2d5967" stroke="none" fill-rule="evenodd" clip-rule="evenodd" transform="translate(53.0000 43.0000) scale(0.170000 0.170000)"/>
  <path d="M 98.87 100 L 0 100 L 0 0 L 100 0 L 98.87 100 L 98.87 100 M 15.73 84.27 L 83.15 84.27 L 83.15 16.85 L 15.73 16.85 L 15.73 84.27 L 15.73 84.27" fill="#2d5967" stroke="none" fill-rule="evenodd" clip-rule="evenodd" transform="translate(13.0000 43.0000) scale(0.170000 0.170000)"/>
</svg>
