<svg xmlns="http://www.w3.org/2000/svg" width="512" height="512" viewBox="-3.3600 -3.3600 90.7200 90.7200" preserveAspectRatio="xMidYMid meet" role="img" aria-label="Networking - Route Table">
  <path d="M 100 0 L 0 0 L 0 100 L 100 100 L 100 0 L 100 0" fill="#FFFFFF" stroke="none" fill-rule="evenodd" clip-rule="evenodd" transform="translate(1.0000 1.0000) scale(0.820000 0.820000)"/>
  <path d="M 97.62 2.38 L 97.62 97.62 L 2.38 97.62 L 2.38 2.38 L 97.62 2.38 L 97.62 2.38 M 100 0 L 97.62 0 L 2.38 0 L 0 0 L 0 2.38 L 0 97.62 L 0 100 L 2.38 100 L 97.62 100 L 100 100 L 100 97.62 L 100 2.38 L 100 0 L 100 0" fill="#FFFFFF" stroke="none" fill-rule="evenodd" clip-rule="evenodd" transform="translate(0.0000 0.0000) scale(0.840000 0.840000)"/>
  <path d="M 0 0 L 0 100 L 100 100 L 100 0 L 0 0 L 0 0 M 96.25 32 L 31.5 32 L 31.5 3.75 L 96.25 3.75 L 96.25 32 L 96.25 32 M 3.75 68 L 27.75 68 L 27.75 96.5 L 3.75 96.5 L 3.75 68 L 3.75 68 M 27.75 3.75 L 27.75 32.25 L 3.75 32.25 L 3.75 3.75 L 27.75 3.75 L 27.75 3.75 M 27.75 35.75 L 27.75 64.25 L 3.75 64.25 L 3.75 35.75 L 27.75 35.75 L 27.75 35.75 M 31.5 96.25 L 31.5 68 L 96.25 68 L 96.25 96.5 L 31.5 96.25 L 31.5 96.25 M 31.5 64.25 L 31.5 35.75 L 96.25 35.75 L 96.25 64.25 L 31.5 64.25 L 31.5 64.25" fill="#aa643b" stroke="none" fill-rule="evenodd" clip-rule="evenodd" transform="translate(2.0000 2.0000) scale(0.800000 0.800000)"/>
  <path d="M 0 100 L 33.33 100 L 50.98 67.31 L 68.62 100 L 100 100 L 70.59 48.08 L 98.03 0 L 66.67 0 L 50.98 30.77 L 33.33 0 L 1.96 0 L 31.37 48.08 L 0 100 L 0 100" fill="#aa643b" stroke="none" fill-rule="evenodd" clip-rule="evenodd" transform="translate(30.0000 14.0000) scale(0.100000 0.100000)"/>
  <path d="M 100 0 L 0 0 L 0 100 L 100 100 L 100 0 L 100 0" fill="#aa643b" stroke="none" fill-rule="evenodd" clip-rule="evenodd" transform="translate(42.0000 22.0000) scale(0.020000 0.020000)"/>
  <path d="M 32 100 L 50 67.31 L 68 100 L 100 100 L 68 48.08 L 98.01 0 L 68 0 L 50 30.77 L 32 0 L 0 0 L 30 48.08 L 0 100 L 32 100 L 32 100" fill="#aa643b" stroke="none" fill-rule="evenodd" clip-rule="evenodd" transform="translate(47.0000 14.0000) scale(0.100000 0.100000)"/>
  <path d="M 100 0 L 0 0 L 0 100 L 100 100 L 100 0 L 100 0" fill="#aa643b" stroke="none" fill-rule="evenodd" clip-rule="evenodd" transform="translate(58.0000 22.0000) scale(0.020000 0.020000)"/>
  <path d="M 32 100 L 50 67.31 L 70 100 L 100 100 L 70 48.08 L 98.01 0 L 68 0 L 50 30.77 L 32 0 L 2.01 0 L 30 48.08 L 0 100 L 32 100 L 32 100" fill="#aa643b" stroke="none" fill-rule="evenodd" clip-rule="evenodd" transform="translate(62.0000 14.0000) scale(0.100000 0.100000)"/>
  <path d="M 100 0 L 0 0 L 0 100 L 100 100 L 100 0 L 100 0" fill="#aa643b" stroke="none" fill-rule="evenodd" clip-rule="evenodd" transform="translate(73.0000 22.0000) scale(0.020000 0.020000)"/>
  <path d="M 98.03 0 L 66.67 0 L 50.98 30.77 L 33.33 0 L 1.96 0 L 31.37 48.08 L 0 100 L 33.33 100 L 50.98 67.31 L 68.62 100 L 100 100 L 70.59 48.08 L 98.03 0 L 98.03 0" fill="#aa643b" stroke="none" fill-rule="evenodd" clip-rule="evenodd" transform="translate(30.0000 40.0000) scale(0.100000 0.100000)"/>
  <path d="M 100 0 L 0 0 L 0 100 L 100 100 L 100 0 L 100 0" fill="#aa643b" stroke="none" fill-rule="evenodd" clip-rule="evenodd" transform="translate(42.0000 48.0000) scale(0.020000 0.020000)"/>
  <path d="M 98.01 0 L 68 0 L 50 30.77 L 32 0 L 0 0 L 30 48.08 L 0 100 L 32 100 L 50 67.31 L 68 100 L 100 100 L 68 48.08 L 98.01 0 L 98.01 0" fill="#aa643b" stroke="none" fill-rule="evenodd" clip-rule="evenodd" transform="translate(47.0000 40.0000) scale(0.100000 0.100000)"/>
  <path d="M 100 0 L 0 0 L 0 100 L 100 100 L 100 0 L 100 0" fill="#aa643b" stroke="none" fill-rule="evenodd" clip-rule="evenodd" transform="translate(58.0000 48.0000) scale(0.020000 0.020000)"/>
  <path d="M 98.01 0 L 68 0 L 50 30.77 L 32 0 L 2.01 0 L 30 48.08 L 0 100 L 32 100 L 50 67.31 L 70 100 L 100 100 L 70 48.08 L 98.01 0 L 98.01 0" fill="#aa643b" stroke="none" fill-rule="evenodd" clip-rule="evenodd" transform="translate(62.0000 40.0000) scale(0.100000 0.100000)"/>
  <path d="M 100 0 L 0 0 L 0 100 L 100 100 L 100 0 L 100 0" fill="#aa643b" stroke="none" fill-rule="evenodd" clip-rule="evenodd" transform="translate(73.0000 48.0000) scale(0.020000 0.020000)"/>
  <path d="M 98.03 0 L 66.67 0 L 50.98 29.41 L 33.33 0 L 1.96 0 L 31.37 47.06 L 0 100 L 33.33 100 L 50.98 66.67 L 68.62 100 L 100 100 L 70.59 49.01 L 98.03 0 L 98.03 0" fill="#aa643b" stroke="none" fill-rule="evenodd" clip-rule="evenodd" transform="translate(30.0000 66.0000) scale(0.100000 0.100000)"/>
  <path d="M 100 0 L 0 0 L 0 100 L 100 100 L 100 0 L 100 0" fill="#aa643b" stroke="none" fill-rule="evenodd" clip-rule="evenodd" transform="translate(42.0000 74.0000) scale(0.020000 0.020000)"/>
  <path d="M 98.01 0 L 68 0 L 50 29.41 L 32 0 L 0 0 L 30 47.06 L 0 100 L 32 100 L 50 66.67 L 68 100 L 100 100 L 68 49.01 L 98.01 0 L 98.01 0" fill="#aa643b" stroke="none" fill-rule="evenodd" clip-rule="evenodd" transform="translate(47.0000 66.0000) scale(0.100000 0.100000)"/>
  <path d="M 100 0 L 0 0 L 0 100 L 100 100 L 100 0 L 100 0" fill="#aa643b" stroke="none" fill-rule="evenodd" clip-rule="evenodd" transform="translate(58.0000 74.0000) scale(0.020000 0.020000)"/>
  <path d="M 98.01 0 L 68 0 L 50 29.41 L 32 0 L 2.01 0 L 30 47.06 L 0 100 L 32 100 L 50 66.67 L 70 100 L 100 100 L 70 49.01 L 98.01 0 L 98.01 0" fill="#aa643b" stroke="none" fill-rule="evenodd" clip-rule="evenodd" transform="translate(62.0000 66.0000) scale(0.100000 0.100000)"/>
  <path d="M 100 0 L 0 0 L 0 100 L 100 100 L 100 0 L 100 0" fill="#aa643b" stroke="none" fill-rule="evenodd" clip-rule="evenodd" transform="translate(73.0000 74.0000) scale(0.020000 0.020000)"/>
</svg>
