<svg xmlns="http://www.w3.org/2000/svg" width="512" height="512" viewBox="-3.3600 -3.3600 90.7200 90.7200" preserveAspectRatio="xMidYMid meet" role="img" aria-label="Analytics and AI - Streaming">
  <path d="M 5.35 99.76 C 2.43 99.76 0 97.32 0 94.4 L 0 5.35 C 0 2.43 2.43 0 5.35 0 L 94.65 0 C 97.57 0 100 2.43 100 5.35 L 100 94.65 C 100 97.57 97.57 100 94.65 100 L 5.35 99.76 L 5.35 99.76" fill="#FFFFFF" stroke="none" fill-rule="evenodd" clip-rule="evenodd" transform="translate(1.0000 1.0000) scale(0.820000 0.820000)"/>
  <path d="M 93.35 2.38 C 95.49 2.38 97.39 4.29 97.39 6.43 L 97.39 93.81 C 97.39 95.95 95.49 97.86 93.35 97.86 L 6.41 97.86 C 4.27 97.62 2.37 95.71 2.37 93.57 L 2.37 6.43 C 2.37 4.29 4.27 2.38 6.41 2.38 L 93.35 2.38 L 93.35 2.38 M 93.35 0 L 6.41 0 C 2.85 0 0 2.86 0 6.43 L 0 93.81 C 0 97.14 2.85 100 6.41 100 L 93.59 100 C 97.15 100 100 97.14 100 93.57 L 100 6.43 C 99.76 2.86 96.91 0 93.35 0 L 93.35 0" fill="#FFFFFF" stroke="none" fill-rule="evenodd" clip-rule="evenodd" transform="translate(0.0000 0.0000) scale(0.840000 0.840000)"/>
  <path d="M 100 0 L 0 0 L 0 100 L 100 100 L 100 0 L 100 0" fill="#2d5967" stroke="none" fill-rule="evenodd" clip-rule="evenodd" transform="translate(34.0000 15.0000) scale(0.130000 0.030000)"/>
  <path d="M 100 0 L 0 0 L 0 100 L 100 100 L 100 0 L 100 0" fill="#2d5967" stroke="none" fill-rule="evenodd" clip-rule="evenodd" transform="translate(23.0000 41.0000) scale(0.130000 0.030000)"/>
  <path d="M 100 0 L 0 0 L 0 100 L 100 100 L 100 0 L 100 0" fill="#2d5967" stroke="none" fill-rule="evenodd" clip-rule="evenodd" transform="translate(8.0000 41.0000) scale(0.030000 0.030000)"/>
  <path d="M 100 0 L 0 0 L 0 100 L 100 100 L 100 0 L 100 0" fill="#2d5967" stroke="none" fill-rule="evenodd" clip-rule="evenodd" transform="translate(8.0000 15.0000) scale(0.080000 0.030000)"/>
  <path d="M 100 0 L 0 0 L 0 100 L 100 100 L 100 0 L 100 0" fill="#2d5967" stroke="none" fill-rule="evenodd" clip-rule="evenodd" transform="translate(50.0000 15.0000) scale(0.030000 0.030000)"/>
  <path d="M 100 0 L 0 0 L 0 100 L 100 100 L 100 0 L 100 0" fill="#2d5967" stroke="none" fill-rule="evenodd" clip-rule="evenodd" transform="translate(23.0000 15.0000) scale(0.030000 0.030000)"/>
  <path d="M 100 0 L 0 0 L 0 100 L 100 100 L 100 0 L 100 0" fill="#2d5967" stroke="none" fill-rule="evenodd" clip-rule="evenodd" transform="translate(18.0000 15.0000) scale(0.030000 0.030000)"/>
  <path d="M 100 0 L 0 0 L 0 100 L 100 100 L 100 0 L 100 0" fill="#2d5967" stroke="none" fill-rule="evenodd" clip-rule="evenodd" transform="translate(55.0000 15.0000) scale(0.030000 0.030000)"/>
  <path d="M 50 100 C 77.63 100 100 77.61 100 50 C 100 22.39 77.63 0 50 0 C 22.41 0 0 22.39 0 50 C 0 77.61 22.41 100 50 100 L 50 100" fill="#2d5967" stroke="none" fill-rule="evenodd" clip-rule="evenodd" transform="translate(29.0000 15.0000) scale(0.020000 0.020000)"/>
  <path d="M 50 100 C 77.59 100 100 77.61 100 50 C 100 22.39 77.59 0 50 0 C 22.37 0 0 22.39 0 50 C 0 77.61 22.37 100 50 100 L 50 100" fill="#2d5967" stroke="none" fill-rule="evenodd" clip-rule="evenodd" transform="translate(60.0000 15.0000) scale(0.020000 0.020000)"/>
  <path d="M 50 100 C 77.63 100 100 77.62 100 50 C 100 22.38 77.63 0 50 0 C 22.41 0 0 22.38 0 50 C 0 77.62 22.41 100 50 100 L 50 100" fill="#2d5967" stroke="none" fill-rule="evenodd" clip-rule="evenodd" transform="translate(44.0000 41.0000) scale(0.020000 0.020000)"/>
  <path d="M 50 100 C 77.59 100 100 77.61 100 50 C 100 22.39 77.59 0 50 0 C 22.37 0 0 22.39 0 50 C 0 77.61 22.37 100 50 100 L 50 100" fill="#2d5967" stroke="none" fill-rule="evenodd" clip-rule="evenodd" transform="translate(60.0000 67.0000) scale(0.020000 0.020000)"/>
  <path d="M 100 0 L 0 0 L 0 100 L 100 100 L 100 0 L 100 0" fill="#2d5967" stroke="none" fill-rule="evenodd" clip-rule="evenodd" transform="translate(39.0000 41.0000) scale(0.030000 0.030000)"/>
  <path d="M 50 100 C 77.63 100 100 77.62 100 50 C 100 22.38 77.63 0 50 0 C 22.41 0 0 22.38 0 50 C 0 77.62 22.41 100 50 100 L 50 100" fill="#2d5967" stroke="none" fill-rule="evenodd" clip-rule="evenodd" transform="translate(18.0000 41.0000) scale(0.020000 0.020000)"/>
  <path d="M 100 0 L 0 0 L 0 100 L 100 100 L 100 0 L 100 0" fill="#2d5967" stroke="none" fill-rule="evenodd" clip-rule="evenodd" transform="translate(13.0000 41.0000) scale(0.030000 0.030000)"/>
  <path d="M 100 0 L 0 0 L 0 100 L 100 100 L 100 0 L 100 0" fill="#2d5967" stroke="none" fill-rule="evenodd" clip-rule="evenodd" transform="translate(50.0000 41.0000) scale(0.130000 0.030000)"/>
  <path d="M 100 0 L 0 0 L 0 100 L 100 100 L 100 0 L 100 0" fill="#2d5967" stroke="none" fill-rule="evenodd" clip-rule="evenodd" transform="translate(39.0000 67.0000) scale(0.130000 0.030000)"/>
  <path d="M 100 0 L 0 0 L 0 100 L 100 100 L 100 0 L 100 0" fill="#2d5967" stroke="none" fill-rule="evenodd" clip-rule="evenodd" transform="translate(55.0000 67.0000) scale(0.030000 0.030000)"/>
  <path d="M 50 100 C 77.59 100 100 77.61 100 50 C 100 22.39 77.59 0 50 0 C 22.37 0 0 22.39 0 50 C 0 77.61 22.37 100 50 100 L 50 100" fill="#2d5967" stroke="none" fill-rule="evenodd" clip-rule="evenodd" transform="translate(34.0000 67.0000) scale(0.020000 0.020000)"/>
  <path d="M 49.98 100 C 77.6 100 100 77.61 100 50 C 100 22.39 77.6 0 49.98 0 C 22.4 0 0 22.39 0 50 C 0 77.61 22.4 100 49.98 100 L 49.98 100" fill="#2d5967" stroke="none" fill-rule="evenodd" clip-rule="evenodd" transform="translate(8.0000 67.0000) scale(0.020000 0.020000)"/>
  <path d="M 100 0 L 0 0 L 0 100 L 100 100 L 100 0 L 100 0" fill="#2d5967" stroke="none" fill-rule="evenodd" clip-rule="evenodd" transform="translate(13.0000 67.0000) scale(0.130000 0.030000)"/>
  <path d="M 100 0 L 0 0 L 0 100 L 100 100 L 100 0 L 100 0" fill="#2d5967" stroke="none" fill-rule="evenodd" clip-rule="evenodd" transform="translate(29.0000 67.0000) scale(0.030000 0.030000)"/>
  <path d="M 95.51 0 L 4.24 0 C 1.99 0 0 2 0 4.25 L 0 96 C 0 98 1.99 100 4.24 100 L 95.76 100 C 98.01 100 100 98 100 95.75 L 100 4.25 C 99.75 2 97.76 0 95.51 0 L 95.51 0 M 96.01 95.75 C 96.01 96 95.76 96.25 95.51 96.25 L 4.24 96.25 C 3.99 96.25 3.74 96 3.74 95.75 L 3.74 4.25 C 3.74 4 3.99 3.75 4.24 3.75 L 95.76 3.75 C 96.01 3.75 96.26 4 96.26 4.25 L 96.01 95.75 L 96.01 95.75" fill="#2d5967" stroke="none" fill-rule="evenodd" clip-rule="evenodd" transform="translate(2.0000 2.0000) scale(0.800000 0.800000)"/>
  <path d="M 0 11.76 L 45.29 40 L 0 40 L 0 57.65 L 47.18 57.65 L 0 87.06 L 18.87 100 L 100 49.41 L 18.87 0 L 0 11.76 L 0 11.76" fill="#2d5967" stroke="none" fill-rule="evenodd" clip-rule="evenodd" transform="translate(65.0000 34.0000) scale(0.100000 0.170000)"/>
  <path d="M 0 12.94 L 45.29 41.18 L 0 41.18 L 0 58.82 L 45.29 58.82 L 0 87.06 L 18.87 100 L 100 49.41 L 18.87 0 L 0 12.94 L 0 12.94" fill="#2d5967" stroke="none" fill-rule="evenodd" clip-rule="evenodd" transform="translate(65.0000 8.0000) scale(0.100000 0.170000)"/>
  <path d="M 0 12.94 L 45.29 41.18 L 0 41.18 L 0 58.82 L 45.29 58.82 L 0 87.05 L 18.87 100 L 100 50.59 L 18.87 0 L 0 12.94 L 0 12.94" fill="#2d5967" stroke="none" fill-rule="evenodd" clip-rule="evenodd" transform="translate(65.0000 60.0000) scale(0.100000 0.170000)"/>
</svg>
