<svg xmlns="http://www.w3.org/2000/svg" width="512" height="512" viewBox="-3.3600 -23.3600 90.7200 90.7200" preserveAspectRatio="xMidYMid meet" role="img" aria-label="Identity and Security - User Group">
  <path d="M 0 100 L 0 74.06 C 0 64.62 3.18 56.13 7.58 53.3 C 7.09 52.36 6.85 51.41 6.36 50 L 5.87 48.11 L 10.76 10.85 L 11 10.85 C 12.47 4.72 15.4 0.94 18.83 0.94 L 23.23 0.94 C 27.63 0.94 31.54 7.55 32.03 16.98 L 36.43 52.36 C 37.65 51.41 38.87 51.41 40.1 51.41 L 42.3 51.41 L 42.3 47.64 C 40.34 43.4 39.12 38.21 39.12 32.55 L 39.12 17.92 C 39.12 6.6 42.3 0 47.68 0 L 62.59 0 L 62.59 31.13 C 62.59 36.79 61.37 41.98 59.41 46.23 L 59.41 50.47 L 61.13 50.47 C 62.1 50.47 63.08 50.94 64.06 51.41 L 68.46 16.51 C 68.95 8.02 72.62 0.94 77.26 0.94 L 81.66 0.94 C 85.09 0.94 88.02 4.72 89.49 10.85 L 89.73 10.85 L 90.22 13.21 L 94.62 48.11 L 93.64 49.53 C 93.4 50.94 92.91 51.89 92.42 52.83 C 96.82 56.13 100 64.15 100 73.58 L 100 99.53 L 0 99.53 L 0 100 L 0 100" fill="#FFFFFF" stroke="none" fill-rule="evenodd" clip-rule="evenodd" transform="translate(1.0000 1.0000) scale(0.820000 0.420000)"/>
  <path d="M 60.48 4.5 L 60.48 7.21 L 60.48 31.98 C 60.48 36.94 59.29 41.89 57.38 45.5 L 57.38 52.7 L 60.24 52.7 C 61.67 52.7 62.86 53.15 64.05 54.05 L 68.81 18.02 C 69.29 10.81 72.38 4.96 76.19 4.96 L 80.48 4.96 C 83.81 4.96 86.43 9.01 87.38 14.87 L 91.67 47.3 L 91.43 48.2 C 90.71 50.45 90 52.25 89.29 53.6 C 94.05 54.95 97.62 63.06 97.62 72.07 L 97.62 94.6 L 96.19 94.6 L 94.52 94.6 L 90 94.6 L 86.91 94.6 L 70.24 94.6 L 69.52 94.6 L 67.14 94.6 L 61.9 94.6 L 58.81 94.6 L 40.71 94.6 L 37.62 94.6 L 32.62 94.6 L 30 94.6 L 29.52 94.6 L 12.86 94.6 L 10 94.6 L 2.38 94.6 L 2.38 72.07 C 2.38 62.61 5.95 54.95 10.71 53.6 C 10 52.25 9.05 50.45 8.57 48.2 L 8.33 47.3 L 12.62 14.87 C 13.57 9.01 16.43 4.96 19.52 4.96 L 23.81 4.96 C 27.62 4.96 30.71 10.81 31.19 18.02 L 35.71 54.5 C 37.14 53.15 38.57 52.7 40 52.7 L 43.33 52.7 L 43.33 45.95 C 41.43 42.34 40.24 37.39 40.24 32.43 L 40.24 22.52 L 40.24 19.37 C 40.24 9.91 42.86 4.5 47.38 4.5 L 60.48 4.5 L 60.48 4.5 M 62.86 0 L 60.48 0 L 47.38 0 C 41.43 0 37.86 7.66 37.86 19.37 L 37.86 22.52 L 37.86 32.88 C 37.86 38.29 39.05 44.15 40.95 48.2 L 40.95 48.65 L 40 48.65 C 39.05 48.65 38.33 48.65 37.38 49.1 L 33.33 17.57 C 32.86 8.11 28.57 0.9 23.57 0.9 L 19.52 0.9 C 16.19 0.9 12.86 4.5 11.19 9.91 L 10.71 9.91 L 10 14.41 L 5.71 46.85 L 5.48 48.65 L 5.95 50 L 6.19 50.9 C 6.19 51.35 6.43 51.8 6.43 51.8 C 2.62 55.86 0 63.51 0 72.97 L 0 95.5 L 0 100 L 2.38 100 L 10 100 L 13.09 100 L 30 100 L 30.48 100 L 33.1 100 L 38.09 100 L 41.19 100 L 59.29 100 L 62.38 100 L 67.62 100 L 70 100 L 70.71 100 L 87.38 100 L 90.48 100 L 95 100 L 96.67 100 L 97.62 100 L 100 100 L 100 95.5 L 100 72.97 C 100 63.96 97.38 55.86 93.33 52.25 C 93.33 51.8 93.57 51.8 93.57 51.35 L 93.81 50.45 L 94.29 49.1 L 94.05 47.3 L 89.76 14.87 L 89.29 10.36 L 88.81 10.81 C 87.14 4.96 84.05 1.8 80.48 1.8 L 76.19 1.8 C 71.19 1.8 67.14 9.01 66.43 18.47 L 62.38 50 C 61.67 50 60.95 49.55 60.24 49.55 L 59.76 49.55 L 59.76 48.65 C 61.67 44.15 62.86 38.74 62.86 33.33 L 62.86 7.21 L 62.86 4.5 L 62.86 0 L 62.86 0" fill="#FFFFFF" stroke="none" fill-rule="evenodd" clip-rule="evenodd" transform="translate(0.0000 0.0000) scale(0.840000 0.440000)"/>
  <path d="M 74.45 54.27 C 76.64 52.76 79.56 50.75 81.02 48.24 L 81.75 47.24 L 68.61 11.06 C 65.69 4.52 56.94 0 47.44 0 L 34.31 0 C 22.63 0 13.14 6.53 11.68 14.57 L 0 47.24 L 0.73 48.24 C 2.19 49.75 2.92 51.25 4.38 52.26 C 9.49 54.27 13.87 57.29 16.79 60.3 L 23.36 60.3 C 24.82 65.33 32.12 69.85 40.15 69.85 C 48.18 69.85 55.48 65.83 56.94 60.3 L 67.88 60.3 C 79.56 60.3 89.05 66.83 89.05 74.87 L 89.05 100 L 100 100 L 100 74.87 C 100 64.82 89.05 55.78 74.45 54.27 L 74.45 54.27 M 21.17 27.64 L 21.17 22.61 C 22.63 22.61 23.36 22.61 24.82 22.61 C 29.2 22.61 35.04 21.61 40.88 19.1 C 48.18 22.61 54.74 23.12 60.58 22.61 L 60.58 27.64 C 60.58 35.68 51.82 42.21 40.88 42.21 C 29.93 42.21 21.17 35.68 21.17 27.64 L 21.17 27.64 M 58.4 53.27 L 58.4 44.22 C 62.77 41.71 66.42 38.69 67.88 34.67 L 72.26 46.23 C 68.61 49.75 64.23 52.26 58.4 53.27 L 58.4 53.27 M 34.31 6.03 L 47.44 6.03 C 54.74 6.03 60.58 10.55 60.58 16.08 C 56.94 16.58 50.36 16.58 44.53 12.56 L 41.61 10.55 L 38.69 12.56 C 32.12 16.58 25.55 16.58 21.9 16.08 L 21.9 15.58 L 22.63 12.56 C 24.09 8.54 29.2 6.03 34.31 6.03 L 34.31 6.03 M 13.87 35.17 C 16.06 38.69 18.98 41.71 23.36 44.22 L 23.36 53.27 C 17.52 51.76 13.14 49.75 10.22 46.23 L 13.87 35.17 L 13.87 35.17 M 40.88 63.32 C 36.5 63.32 32.85 60.8 32.85 58.29 L 32.85 47.74 C 35.77 48.24 37.96 48.74 40.88 48.74 C 43.8 48.74 46.72 48.24 48.9 47.74 L 48.9 58.29 C 48.9 60.8 45.26 63.32 40.88 63.32 L 40.88 63.32" fill="#2d5967" stroke="none" fill-rule="evenodd" clip-rule="evenodd" transform="translate(55.0000 2.0000) scale(0.270000 0.400000)"/>
  <path d="M 0 23.53 L 0 100 L 100 100 L 100 23.53 L 100 0 L 50 0 L 0 23.53 L 0 23.53" fill="#2d5967" stroke="none" fill-rule="evenodd" clip-rule="evenodd" transform="translate(73.0000 32.0000) scale(0.020000 0.100000)"/>
  <path d="M 93.43 53.27 C 95.62 51.76 97.08 50.25 99.27 48.24 L 100 47.24 L 87.59 14.57 C 86.13 6.53 76.64 0 64.97 0 L 52.55 0 C 42.34 0 34.31 4.52 31.39 11.06 L 18.25 47.24 L 18.98 48.24 C 21.17 50.75 23.36 52.76 25.55 54.27 C 10.95 55.78 0 64.82 0 74.87 L 0 100 L 9.49 100 L 9.49 74.87 C 9.49 66.83 18.98 60.3 30.66 60.3 L 41.61 60.3 C 43.07 65.33 50.37 69.85 58.39 69.85 C 67.15 69.85 73.72 65.83 75.18 60.3 L 82.48 60.3 C 86.13 57.79 89.78 55.28 93.43 53.27 L 93.43 53.27 M 39.42 27.64 L 39.42 22.61 C 44.53 23.12 51.83 22.61 59.13 19.1 C 64.97 22.11 70.8 22.61 75.18 22.61 C 76.64 22.61 78.1 22.61 78.84 22.61 L 78.84 27.64 C 78.84 35.68 70.07 42.21 59.13 42.21 C 48.18 42.21 39.42 35.68 39.42 27.64 L 39.42 27.64 M 76.64 53.27 L 76.64 44.22 C 81.02 41.71 83.94 38.69 86.13 35.17 L 89.78 45.73 C 86.13 49.75 82.48 52.26 76.64 53.27 L 76.64 53.27 M 52.55 6.03 L 65.69 6.03 C 71.53 6.03 75.91 8.54 78.1 12.06 L 78.84 15.08 L 78.84 15.58 C 75.18 16.08 68.61 16.08 62.05 12.06 L 59.13 10.55 L 55.47 12.56 C 49.64 16.58 43.07 16.58 39.42 16.08 C 39.42 10.55 45.26 6.03 52.55 6.03 L 52.55 6.03 M 32.12 34.67 C 33.58 38.69 37.23 41.71 41.61 44.22 L 41.61 53.27 C 35.77 51.76 31.39 49.75 27.74 45.73 L 32.12 34.67 L 32.12 34.67 M 59.13 63.32 C 54.75 63.32 51.09 60.8 51.09 58.29 L 51.09 47.74 C 54.01 48.24 56.21 48.74 59.13 48.74 C 62.05 48.74 64.97 48.24 67.15 47.74 L 67.15 58.29 C 67.15 60.8 63.51 63.32 59.13 63.32 L 59.13 63.32" fill="#2d5967" stroke="none" fill-rule="evenodd" clip-rule="evenodd" transform="translate(2.0000 2.0000) scale(0.270000 0.400000)"/>
  <path d="M 50 0 L 0 0 L 0 23.53 L 0 100 L 100 100 L 100 23.53 L 50 0 L 50 0" fill="#2d5967" stroke="none" fill-rule="evenodd" clip-rule="evenodd" transform="translate(8.0000 32.0000) scale(0.020000 0.100000)"/>
  <path d="M 75.15 53.47 L 68.05 53.47 L 68.05 45.54 C 72.78 41.58 75.74 36.14 75.74 30.69 L 75.74 2.97 L 75.74 0 L 43.19 0 C 31.95 0 25.44 5.94 25.44 16.34 L 25.44 19.8 L 25.44 31.19 C 25.44 36.63 28.4 42.08 33.13 46.04 L 33.13 53.47 L 24.85 53.47 C 11.24 53.47 0 62.87 0 74.26 L 0 100 L 1.18 100 L 7.69 100 L 7.69 74.26 C 7.69 66.34 15.38 59.9 24.85 59.9 L 34.32 59.9 L 50.3 74.26 L 66.27 59.9 L 75.15 59.9 C 84.62 59.9 92.31 66.34 92.31 74.26 L 92.31 100 L 98.23 100 L 100 100 L 100 74.26 C 100 62.87 88.76 53.47 75.15 53.47 L 75.15 53.47 M 51.48 45.54 C 46.15 46.04 41.42 44.55 37.87 41.58 C 34.32 38.61 32.54 35.15 32.54 31.19 L 32.54 19.8 L 59.17 19.8 C 62.72 19.8 65.68 19.31 68.05 17.82 L 68.05 30.69 C 68.05 38.12 60.35 45.05 51.48 45.54 L 51.48 45.54 M 67.46 6.44 C 66.27 13.37 60.95 13.37 59.17 13.37 L 32.54 13.37 C 33.73 8.91 36.69 6.44 42.6 6.44 L 67.46 6.44 L 67.46 6.44 M 49.7 64.85 L 39.65 55.94 L 39.65 50.5 C 42.6 51.48 46.15 52.47 49.7 52.47 C 50.3 52.47 50.89 52.47 51.48 52.47 C 54.44 52.47 57.4 51.48 59.76 50.5 L 59.76 56.44 L 49.7 64.85 L 49.7 64.85" fill="#2d5967" stroke="none" fill-rule="evenodd" clip-rule="evenodd" transform="translate(25.0000 2.0000) scale(0.340000 0.400000)"/>
  <path d="M 100 23.53 L 53.84 0 L 0 0 L 0 23.53 L 0 100 L 100 100 L 100 23.53 L 100 23.53" fill="#2d5967" stroke="none" fill-rule="evenodd" clip-rule="evenodd" transform="translate(32.0000 32.0000) scale(0.020000 0.100000)"/>
  <path d="M 100 100 L 100 23.53 L 100 0 L 46.12 0 L 0 23.53 L 0 100 L 100 100 L 100 100" fill="#2d5967" stroke="none" fill-rule="evenodd" clip-rule="evenodd" transform="translate(49.0000 32.0000) scale(0.020000 0.100000)"/>
</svg>
