<svg xmlns="http://www.w3.org/2000/svg" width="512" height="512" viewBox="-12.3600 -3.3600 90.7200 90.7200" preserveAspectRatio="xMidYMid meet" role="img" aria-label="Identity and Security - User">
  <path d="M 50 100 C 22.6 100 0 77.4 0 50 C 0 22.6 22.6 0 50 0 C 77.41 0 100 22.6 100 50 C 100 77.4 77.41 100 50 100 L 50 100" fill="#FFFFFF" stroke="none" fill-rule="evenodd" clip-rule="evenodd" transform="translate(12.0000 1.0000) scale(0.410000 0.410000)"/>
  <path d="M 50 4.59 C 75.23 4.59 95.41 24.77 95.41 50 C 95.41 75.23 75.23 95.41 50 95.41 C 24.77 95.41 4.59 75.23 4.59 50 C 4.59 24.77 24.77 4.59 50 4.59 L 50 4.59 M 50 0 C 22.48 0 0 22.48 0 50 C 0 77.52 22.48 100 50 100 C 77.52 100 100 77.52 100 50 C 100 22.48 77.52 0 50 0 L 50 0" fill="#FFFFFF" stroke="none" fill-rule="evenodd" clip-rule="evenodd" transform="translate(11.0000 0.0000) scale(0.430000 0.430000)"/>
  <path d="M 0 100 L 0 36.5 C 0 16.5 10.31 0 22.81 0 L 29.69 0 L 30.94 2.5 C 35.62 12 42.5 17.5 50 17.5 C 50.94 17.5 52.19 17.5 53.12 17 C 59.38 16 65.31 10 69.38 1.5 L 70.31 0 L 77.19 0 C 89.69 0 100 16.5 100 36.5 L 100 100 L 0 100 L 0 100" fill="#FFFFFF" stroke="none" fill-rule="evenodd" clip-rule="evenodd" transform="translate(1.0000 43.0000) scale(0.640000 0.400000)"/>
  <path d="M 76.36 4.76 C 87.88 4.76 96.97 19.05 96.97 37.14 L 96.97 95.24 L 92.42 95.24 L 91.82 95.24 L 3.03 95.24 L 3.03 37.14 C 3.03 19.52 12.12 4.76 23.64 4.76 L 29.39 4.76 L 30 6.19 C 34.85 15.71 41.82 21.43 49.7 21.43 C 50.91 21.43 51.82 21.43 53.03 20.95 C 59.7 19.52 65.76 13.81 70 5.24 L 70.3 4.76 L 76.36 4.76 L 76.36 4.76 M 76.36 0 L 70.61 0 L 69.09 0 L 68.18 1.9 L 67.88 2.38 C 63.94 10 58.79 15.24 53.03 16.67 C 52.12 16.67 51.21 17.14 50 17.14 C 43.03 17.14 36.67 12.38 32.73 3.81 L 32.12 2.38 L 30.91 0 L 29.39 0 L 23.64 0 C 10.61 0 0 16.67 0 37.14 L 0 95.24 L 0 100 L 3.03 100 L 91.82 100 L 92.42 100 L 96.97 100 L 100 100 L 100 95.24 L 100 37.14 C 100 16.67 89.39 0 76.36 0 L 76.36 0" fill="#FFFFFF" stroke="none" fill-rule="evenodd" clip-rule="evenodd" transform="translate(0.0000 42.0000) scale(0.660000 0.420000)"/>
  <path d="M 50 100 C 77.78 100 100 77.78 100 50 C 100 22.22 77.78 0 50 0 C 22.22 0 0 22.22 0 50 C 0 77.78 22.22 100 50 100 L 50 100 M 50 8.59 C 72.73 8.59 91.41 27.27 91.41 50 C 91.41 72.73 72.73 91.41 50 91.41 C 27.27 91.41 8.59 72.73 8.59 50 C 8.59 27.27 26.77 8.59 50 8.59 L 50 8.59" fill="#2d5967" stroke="none" fill-rule="evenodd" clip-rule="evenodd" transform="translate(13.0000 2.0000) scale(0.390000 0.390000)"/>
  <path d="M 78.06 0 L 71.94 0 L 70.97 2.11 C 65.81 12.63 58.06 18.95 50 18.95 C 41.94 18.95 34.19 12.63 29.03 2.11 L 28.06 0 L 21.94 0 C 10 0 0 15.79 0 35.79 L 0 100 L 5.48 100 L 5.48 35.79 C 5.48 21.05 12.9 8.95 21.94 8.95 L 25.48 8.95 C 31.61 21.05 40.32 27.37 50 27.37 C 59.68 27.37 68.39 20.53 74.52 8.95 L 78.06 8.95 C 87.1 8.95 94.52 21.05 94.52 35.79 L 94.52 100 L 100 100 L 100 35.79 C 100 16.32 90 0 78.06 0 L 78.06 0" fill="#2d5967" stroke="none" fill-rule="evenodd" clip-rule="evenodd" transform="translate(2.0000 44.0000) scale(0.620000 0.380000)"/>
</svg>
