<svg xmlns="http://www.w3.org/2000/svg" width="512" height="512" viewBox="-3.3600 -22.3600 90.7200 90.7200" preserveAspectRatio="xMidYMid meet" role="img" aria-label="Identity and Security - User Group">
  <path d="M 0 99.55 L 0 72.85 C 0 60.63 5.38 50.68 11.98 50.68 L 13.69 50.68 L 13.69 45.7 C 11.98 41.63 10.76 36.65 10.76 31.68 L 10.76 18.1 C 10.76 7.24 14.18 0 19.56 0 L 34.96 0 L 34.96 30.77 C 34.96 36.65 33.74 42.53 31.3 46.61 L 31.3 50.23 L 34.96 50.23 C 34.72 49.78 34.72 49.32 34.48 48.87 L 33.99 47.97 L 38.39 15.38 C 38.39 14.93 38.63 14.03 38.63 13.57 L 38.88 11.76 C 40.34 5.43 43.52 1.36 47.19 1.36 L 51.59 1.36 C 55.01 1.36 58.19 5.43 59.66 11.31 L 59.9 11.31 L 60.15 13.57 L 64.79 48.42 L 64.3 50.23 C 64.06 50.68 64.06 51.13 63.81 51.58 L 68.22 51.58 L 68.22 46.61 C 66.5 42.53 65.28 37.56 65.28 32.58 L 65.28 19 C 65.28 8.14 68.7 0.91 74.08 0.91 L 89.49 0.91 L 89.49 31.68 C 89.49 37.56 88.26 43.44 85.82 47.51 L 85.82 51.13 L 88.02 51.13 C 94.62 51.13 100 61.09 100 73.3 L 100 100 L 0 100 L 0 99.55 L 0 99.55" fill="#FFFFFF" stroke="none" fill-rule="evenodd" clip-rule="evenodd" transform="translate(1.0000 0.0000) scale(0.820000 0.440000)"/>
  <path d="M 87.38 4.33 L 87.38 7.36 L 87.38 32.03 C 87.38 37.66 85.95 42.86 83.81 46.32 L 83.81 52.81 L 87.14 52.81 C 92.86 52.81 97.62 61.47 97.62 71.86 L 97.62 95.24 L 2.38 95.24 L 2.38 71.86 C 2.38 61.47 7.14 52.81 12.86 52.81 L 15.71 52.81 L 15.71 45.02 C 14.05 41.56 12.86 37.23 12.86 32.47 L 12.86 22.08 L 12.86 19.48 C 12.86 9.96 15.71 4.33 20.48 4.33 L 34.29 4.33 L 34.29 7.36 L 34.29 32.03 C 34.29 37.66 32.86 42.86 30.71 46.32 L 30.71 52.81 L 37.86 52.81 C 37.14 51.52 36.67 50.22 35.95 48.49 L 35.71 47.62 L 40 17.32 C 40 16.88 40.24 16.02 40.24 15.58 C 41.19 9.96 44.05 5.63 47.38 5.63 L 51.67 5.63 C 55 5.63 57.86 9.96 58.81 15.58 L 63.33 48.05 L 63.1 48.92 C 62.62 50.65 61.9 51.95 61.19 53.25 L 69.05 53.25 L 69.05 45.45 C 67.38 41.99 66.19 37.23 66.19 32.9 L 66.19 22.08 L 66.19 19.48 C 66.19 9.96 69.05 4.33 73.81 4.33 L 87.38 4.33 L 87.38 4.33 M 89.76 0 L 87.38 0 L 73.81 0 C 67.86 0 64.05 7.36 64.05 19.48 L 64.05 22.51 L 64.05 32.9 C 64.05 33.33 64.05 34.2 64.05 34.63 L 61.19 14.29 L 60.71 9.96 L 60.24 9.96 C 58.57 4.33 55.24 0.87 51.67 0.87 L 47.38 0.87 C 43.81 0.87 40.71 4.33 38.81 9.96 L 38.33 9.96 L 37.86 14.29 C 37.86 14.72 37.62 15.58 37.62 16.02 L 36.67 22.94 L 36.67 7.36 L 36.67 4.33 L 36.67 0 L 34.29 0 L 20.48 0 C 14.52 0 10.48 7.36 10.48 19.48 L 10.48 22.51 L 10.48 32.9 C 10.48 38.1 11.43 43.29 13.33 47.19 L 13.33 48.92 L 12.86 48.92 C 5.71 48.92 0 59.31 0 72.3 L 0 95.67 L 0 100 L 2.38 100 L 97.62 100 L 100 100 L 100 95.67 L 100 72.3 C 100 59.31 94.29 48.92 87.14 48.92 L 86.19 48.92 L 86.19 48.49 C 88.33 44.16 89.76 38.1 89.76 32.47 L 89.76 7.36 L 89.76 4.33 L 89.76 0 L 89.76 0 M 65.71 48.49 L 65.95 48.05 L 65.71 46.32 L 65 41.56 C 65.48 43.29 65.95 45.02 66.67 46.75 L 66.67 48.49 L 65.71 48.49 L 65.71 48.49 M 33.1 48.05 C 33.1 48.05 33.1 47.62 33.1 48.05 L 33.33 48.49 L 33.1 48.49 L 33.1 48.05 L 33.1 48.05" fill="#FFFFFF" stroke="none" fill-rule="evenodd" clip-rule="evenodd" transform="translate(0.0000 0.0000) scale(0.840000 0.460000)"/>
  <path d="M 66.41 53.08 L 55.73 53.08 L 55.73 45.97 C 62.6 42.18 67.18 36.49 67.18 30.33 L 67.18 3.32 L 67.18 0 L 23.67 0 C 8.4 0 0 6.16 0 16.59 L 0 19.9 L 0 31.28 C 0 36.49 3.05 41.23 9.16 45.02 L 9.16 53.55 L 0.76 53.55 C 3.82 54.5 6.11 55.92 8.4 57.82 C 9.16 58.29 10.68 59.24 11.45 60.19 L 12.21 60.19 L 33.59 74.41 L 54.96 60.19 L 67.94 60.19 C 80.92 60.19 90.84 66.82 90.84 74.41 L 90.84 100 L 100 100 L 100 74.41 C 100 62.08 84.73 53.08 66.41 53.08 L 66.41 53.08 M 23.67 6.16 L 57.25 6.16 C 55.73 13.27 48.09 13.27 45.8 13.27 L 9.92 13.27 C 11.45 8.53 16.03 6.16 23.67 6.16 L 23.67 6.16 M 45.8 54.97 L 32.06 63.98 L 18.32 54.97 L 18.32 48.81 C 22.9 50.24 28.24 51.18 33.59 51.18 C 34.35 51.18 35.12 51.18 35.88 51.18 C 39.7 51.18 42.75 50.71 45.8 49.76 L 45.8 54.97 L 45.8 54.97 M 35.12 45.02 C 28.24 45.5 22.14 44.07 16.79 41.23 C 12.21 38.39 9.16 34.6 9.16 30.81 L 9.16 19.43 L 45.04 19.43 C 49.62 19.43 53.43 18.96 56.49 17.54 L 56.49 30.33 C 57.25 37.91 47.33 44.55 35.12 45.02 L 35.12 45.02" fill="#2d5967" stroke="none" fill-rule="evenodd" clip-rule="evenodd" transform="translate(56.0000 2.0000) scale(0.260000 0.420000)"/>
  <path d="M 100 0 L 46.16 0 L 0 26.42 L 0 100 L 100 100 L 100 0 L 100 0" fill="#2d5967" stroke="none" fill-rule="evenodd" clip-rule="evenodd" transform="translate(72.0000 33.0000) scale(0.020000 0.100000)"/>
  <path d="M 87.22 59.24 C 87.97 58.77 88.72 58.29 89.47 57.82 C 91.73 55.92 94.74 54.5 97.75 53.08 L 88.72 53.08 L 88.72 45.97 C 95.49 42.18 100 36.49 100 30.33 L 100 3.32 L 100 0 L 57.14 0 C 42.1 0 33.83 6.16 33.83 16.59 L 33.83 19.9 L 33.83 31.28 C 33.83 36.49 36.84 41.23 42.86 45.02 L 42.86 53.55 L 33.08 53.55 C 15.04 53.55 0 63.03 0 74.41 L 0 100 L 9.77 100 L 9.77 74.41 C 9.77 66.35 20.3 60.19 32.33 60.19 L 43.61 60.19 L 64.66 74.41 L 87.22 59.24 L 87.22 59.24 M 57.14 6.16 L 90.23 6.16 C 88.72 13.27 81.2 13.27 78.95 13.27 L 43.61 13.27 C 45.11 8.53 49.62 6.16 57.14 6.16 L 57.14 6.16 M 78.95 54.97 L 65.41 63.98 L 51.88 54.97 L 51.88 48.81 C 56.39 50.24 61.65 51.18 66.92 51.18 C 67.67 51.18 68.42 51.18 69.17 51.18 C 72.93 51.18 75.94 50.71 78.95 49.76 L 78.95 54.97 L 78.95 54.97 M 68.42 45.02 C 61.65 45.5 55.64 44.07 50.38 41.23 C 45.87 38.39 42.86 34.6 42.86 30.81 L 42.86 19.43 L 78.19 19.43 C 82.71 19.43 86.47 18.96 89.47 17.54 L 89.47 30.33 C 90.23 37.91 80.45 44.55 68.42 45.02 L 68.42 45.02" fill="#2d5967" stroke="none" fill-rule="evenodd" clip-rule="evenodd" transform="translate(2.0000 2.0000) scale(0.260000 0.420000)"/>
  <path d="M 46.14 0 L 0 0 L 0 100 L 100 100 L 100 26.42 L 46.14 0 L 46.14 0" fill="#2d5967" stroke="none" fill-rule="evenodd" clip-rule="evenodd" transform="translate(9.0000 33.0000) scale(0.020000 0.100000)"/>
  <path d="M 76.92 54.1 C 79.29 52.66 81.07 50.24 82.25 48.31 L 82.84 47.34 L 71.6 11.11 C 69.23 4.83 62.13 0 53.85 0 L 43.19 0 C 34.91 0 27.81 4.83 25.44 11.11 C 25.44 11.59 24.85 12.08 24.85 13.04 L 14.2 46.86 L 14.79 47.83 C 16.57 50.24 18.34 52.17 20.71 54.1 C 8.88 56.04 0 64.73 0 74.88 L 0 100 L 7.1 100 L 8.28 100 L 8.28 74.88 C 8.28 66.67 16.57 60.39 26.04 60.39 L 35.5 60.39 C 36.69 65.7 42.6 69.57 49.7 69.57 C 56.8 69.57 62.72 65.22 63.9 60.39 L 73.96 60.39 C 84.02 60.39 91.71 67.15 91.71 74.88 L 91.71 100 L 92.9 100 L 100 100 L 100 74.88 C 99.41 64.25 89.35 55.56 76.92 54.1 L 76.92 54.1 M 32.54 14.49 L 33.13 13.04 C 34.91 9.18 39.05 6.28 43.79 6.28 L 54.44 6.28 C 60.35 6.28 65.68 10.63 65.68 15.94 C 62.72 16.42 57.4 16.42 51.48 12.56 L 49.11 10.63 L 46.74 12.56 C 41.42 16.42 36.1 16.42 32.54 15.94 C 32.54 15.46 32.54 14.98 32.54 14.49 L 32.54 14.49 M 34.91 53.62 C 29.58 52.17 25.44 50.24 22.49 45.89 L 26.04 34.78 C 27.81 38.65 30.77 42.03 34.91 44.44 L 34.91 53.62 L 34.91 53.62 M 56.8 58.45 C 56.8 60.87 53.25 63.28 49.7 63.28 C 46.15 63.28 43.19 60.87 43.19 58.45 L 43.19 47.83 C 44.97 48.31 46.74 48.31 49.11 48.31 C 52.07 48.31 54.44 47.83 56.8 47.34 L 56.8 58.45 L 56.8 58.45 M 49.11 42.03 C 40.24 42.03 32.54 35.27 32.54 27.54 L 32.54 22.71 C 36.69 23.19 43.19 22.71 49.11 19.32 C 53.85 22.22 58.58 23.19 62.72 23.19 C 63.9 23.19 65.09 23.19 65.68 23.19 L 65.68 28.02 C 65.68 35.27 57.99 42.03 49.11 42.03 L 49.11 42.03 M 64.5 53.14 L 64.5 43.48 C 67.46 41.06 70.41 38.16 71.6 34.78 L 75.15 45.89 C 72.19 49.76 69.23 51.69 64.5 53.14 L 64.5 53.14" fill="#2d5967" stroke="none" fill-rule="evenodd" clip-rule="evenodd" transform="translate(25.0000 2.0000) scale(0.340000 0.410000)"/>
  <path d="M 53.88 0 L 0 0 L 0 100 L 100 100 L 100 26.42 L 53.88 0 L 53.88 0" fill="#2d5967" stroke="none" fill-rule="evenodd" clip-rule="evenodd" transform="translate(31.0000 33.0000) scale(0.020000 0.100000)"/>
  <path d="M 0 26.42 L 0 100 L 100 100 L 100 0 L 53.84 0 L 0 26.42 L 0 26.42" fill="#2d5967" stroke="none" fill-rule="evenodd" clip-rule="evenodd" transform="translate(49.0000 33.0000) scale(0.020000 0.100000)"/>
</svg>
