<svg xmlns="http://www.w3.org/2000/svg" width="512" height="512" viewBox="-7.3600 -3.3600 90.7200 90.7200" preserveAspectRatio="xMidYMid meet" role="img" aria-label="Identity and Security - User">
  <path d="M 0.03 100 L 0.03 82.93 C 0 77.36 2.27 71.99 6.4 67.83 C 10.53 63.68 16.24 61.05 22.41 60.44 C 19.98 58.37 17.91 55.97 16.28 53.34 L 15.58 52.22 L 26.47 11.76 C 27.72 8.34 30.13 5.37 33.38 3.26 C 36.63 1.15 40.53 0.01 44.54 0 L 55.43 0 C 59.41 0.06 63.27 1.21 66.48 3.31 C 69.7 5.41 72.1 8.36 73.38 11.73 L 73.73 12.88 L 84.43 52.17 L 83.72 53.29 C 82.11 55.93 80.05 58.34 77.62 60.41 C 83.79 61.03 89.48 63.66 93.61 67.81 C 97.73 71.96 100 77.32 99.98 82.88 L 99.98 99.95 L 0.03 100 L 0.03 100" fill="#FFFFFF" stroke="none" fill-rule="evenodd" clip-rule="evenodd" transform="translate(1.0000 1.0000) scale(0.740000 0.820000)"/>
  <path d="M 55.31 2.38 C 59.11 2.44 62.79 3.61 65.77 5.72 C 68.76 7.83 70.9 10.76 71.86 14.07 L 82.1 51.93 L 81.65 52.64 C 79.63 56.01 76.79 58.91 73.34 61.14 L 73.53 61.14 C 76.63 61.07 79.72 61.56 82.61 62.58 C 85.5 63.6 88.13 65.13 90.35 67.09 C 92.57 69.04 94.33 71.37 95.54 73.94 C 96.74 76.52 97.36 79.28 97.35 82.07 L 97.35 97.62 L 2.68 97.62 L 2.68 82.07 C 2.68 79.28 3.3 76.52 4.5 73.94 C 5.7 71.37 7.46 69.04 9.69 67.09 C 11.91 65.13 14.54 63.6 17.43 62.58 C 20.32 61.56 23.41 61.07 26.51 61.14 L 26.75 61.14 C 23.3 58.91 20.45 56.01 18.44 52.64 L 17.98 51.93 L 28.1 14.05 C 29.05 10.74 31.19 7.81 34.18 5.7 C 37.17 3.59 40.85 2.43 44.64 2.38 L 55.23 2.38 L 55.31 2.38 L 55.31 2.38 M 55.23 0 L 44.64 0 C 40.73 0.06 36.92 1.16 33.69 3.16 C 30.47 5.16 27.97 7.97 26.51 11.24 L 26.27 11.24 L 25.61 13.62 L 15.31 51.38 L 15.05 52.29 L 15.58 53.12 L 15.92 53.81 C 17.15 55.8 18.61 57.66 20.29 59.36 C 14.53 60.48 9.37 63.35 5.68 67.48 C 1.99 71.62 0 76.77 0.04 82.07 L 0.04 100 L 99.97 100 L 99.97 82.07 C 100 76.76 97.99 71.6 94.29 67.47 C 90.59 63.33 85.41 60.47 79.64 59.36 C 81.32 57.65 82.79 55.79 84.04 53.81 L 84.49 53.12 L 85.01 52.29 L 84.75 51.36 L 74.48 13.5 L 73.84 11.12 L 73.58 11.12 C 72.08 7.86 69.55 5.07 66.3 3.09 C 63.05 1.12 59.23 0.04 55.31 0 L 55.23 0 L 55.23 0" fill="#FFFFFF" stroke="none" fill-rule="evenodd" clip-rule="evenodd" transform="translate(0.0000 0.0000) scale(0.760000 0.840000)"/>
  <path d="M 74.98 61.7 L 74.78 61.7 C 78.43 59.36 81.43 56.31 83.57 52.77 L 84.04 52.02 L 73.19 12.25 C 72.17 8.77 69.9 5.69 66.73 3.48 C 63.56 1.27 59.66 0.05 55.64 0 L 44.45 0 C 40.44 0.06 36.56 1.29 33.41 3.51 C 30.26 5.73 28.02 8.81 27.01 12.27 L 16.07 52.02 L 16.55 52.77 C 18.68 56.31 21.69 59.36 25.33 61.7 L 25.19 61.7 C 21.91 61.63 18.65 62.14 15.59 63.21 C 12.53 64.29 9.75 65.9 7.4 67.95 C 5.05 70 3.19 72.45 1.92 75.16 C 0.65 77.86 0 80.77 0.01 83.7 L 0.01 100 L 4.77 100 L 4.77 83.7 C 4.77 81.33 5.3 78.98 6.34 76.79 C 7.37 74.61 8.89 72.63 10.79 70.98 C 12.69 69.32 14.95 68.02 17.42 67.16 C 19.9 66.3 22.54 65.89 25.19 65.95 L 36.39 65.95 C 36.84 68.9 38.47 71.61 40.98 73.57 C 43.5 75.53 46.72 76.61 50.06 76.61 C 53.4 76.61 56.62 75.53 59.13 73.57 C 61.65 71.61 63.28 68.9 63.73 65.95 L 74.92 65.95 C 77.57 65.9 80.2 66.32 82.66 67.19 C 85.12 68.06 87.36 69.36 89.25 71.01 C 91.15 72.67 92.65 74.64 93.68 76.82 C 94.7 79 95.24 81.34 95.24 83.7 L 95.24 100 L 100 100 L 100 83.7 C 100 80.77 99.35 77.86 98.08 75.16 C 96.81 72.46 94.94 70.01 92.59 67.96 C 90.25 65.91 87.47 64.3 84.41 63.22 C 81.36 62.15 78.09 61.63 74.81 61.7 L 74.98 61.7 L 74.98 61.7 M 30.99 29.82 L 30.99 22.5 C 32.16 22.75 33.36 22.91 34.57 22.97 C 40.17 23.24 45.69 21.62 50.02 18.42 C 54.03 21.35 59.03 22.96 64.2 23 L 65.49 23 C 66.7 22.93 67.9 22.76 69.07 22.5 L 69.07 29.8 C 69.15 32.1 68.73 34.4 67.81 36.56 C 66.9 38.71 65.51 40.69 63.74 42.36 C 61.97 44.04 59.85 45.39 57.49 46.33 C 55.14 47.27 52.6 47.79 50.02 47.85 C 47.44 47.79 44.9 47.27 42.55 46.32 C 40.19 45.38 38.07 44.03 36.31 42.36 C 34.54 40.68 33.16 38.71 32.25 36.55 C 31.33 34.4 30.91 32.1 30.99 29.8 L 30.99 29.82 L 30.99 29.82 M 63.73 61.15 L 63.73 48.02 C 66.54 46.15 68.88 43.76 70.6 41.03 C 72.32 38.3 73.38 35.27 73.72 32.15 L 78.95 51.37 C 77.36 53.9 75.17 56.08 72.54 57.77 C 69.92 59.46 66.91 60.62 63.73 61.17 L 63.73 61.15 L 63.73 61.15 M 44.36 4.25 L 55.56 4.25 C 59.22 4.38 62.68 5.79 65.19 8.17 C 67.7 10.56 69.07 13.73 68.99 17 L 68.99 18.15 C 65.94 18.93 62.71 18.97 59.65 18.25 C 56.58 17.54 53.78 16.09 51.55 14.07 L 49.93 12.77 L 48.34 14.07 C 46.11 16.09 43.32 17.54 40.25 18.26 C 37.18 18.97 33.95 18.94 30.9 18.15 L 30.9 17 C 30.83 13.73 32.18 10.57 34.68 8.19 C 37.18 5.81 40.63 4.39 44.28 4.25 L 44.36 4.25 L 44.36 4.25 M 21.14 51.37 L 26.34 32.22 C 26.69 35.34 27.77 38.35 29.5 41.07 C 31.23 43.79 33.57 46.16 36.39 48.02 L 36.39 61.17 C 33.21 60.62 30.21 59.46 27.59 57.76 C 24.96 56.07 22.78 53.89 21.19 51.37 L 21.14 51.37 L 21.14 51.37 M 50.07 72.3 C 47.82 72.3 45.66 71.55 43.99 70.2 C 42.33 68.85 41.28 67 41.06 65 L 41.06 50.47 C 43.89 51.56 46.95 52.13 50.03 52.13 C 53.11 52.13 56.17 51.56 59 50.47 L 59 65 C 58.78 67 57.75 68.86 56.09 70.22 C 54.43 71.57 52.27 72.33 50.02 72.35" fill="#2c5967" stroke="none" fill-rule="evenodd" clip-rule="evenodd" transform="translate(2.0000 2.0000) scale(0.720000 0.800000)"/>
</svg>
